<?xml version="1.0" standalone="no"?>
<!DOCTYPE svg PUBLIC "-//W3C//DTD SVG 20010904//EN"
 "http://www.w3.org/TR/2001/REC-SVG-20010904/DTD/svg10.dtd">
<svg version="1.0" xmlns="http://www.w3.org/2000/svg"
 width="700.000000pt" height="700.000000pt" viewBox="0 0 700.000000 700.000000"
 preserveAspectRatio="xMidYMid meet">
<metadata>
Created by potrace 1.14, written by Peter Selinger 2001-2017
</metadata>
<g transform="translate(0.000000,700.000000) scale(0.100000,-0.100000)"
fill="#000000" stroke="none">
<path d="M1351 6979 c-278 -71 -478 -354 -550 -779 -27 -160 -37 -275 -36
-436 2 -197 21 -220 185 -223 52 -1 96 -4 97 -5 10 -9 14 -239 5 -245 -5 -3
-63 -55 -128 -116 -167 -156 -171 -160 -280 -261 -55 -50 -120 -110 -146 -133
-50 -45 -62 -73 -92 -211 -9 -41 -30 -131 -46 -200 -16 -69 -43 -183 -59 -255
-70 -307 -143 -624 -156 -680 -22 -92 -46 -198 -50 -218 -2 -10 -6 -26 -9 -35
-3 -9 -8 -32 -11 -51 -3 -19 -8 -37 -10 -41 -2 -4 -7 -22 -10 -41 -3 -19 -17
-81 -31 -139 -47 -194 -12 -279 116 -288 68 -4 116 19 141 69 10 19 34 106 54
194 19 88 44 198 55 245 46 198 141 617 146 644 3 16 7 32 9 36 2 4 7 20 10
37 2 17 17 80 31 139 14 60 28 119 30 132 3 13 18 83 35 155 17 73 33 141 35
152 2 11 11 52 20 92 l16 71 136 119 c74 65 140 123 146 128 6 6 65 57 131
114 157 137 169 149 195 198 30 59 33 85 34 278 0 200 -9 246 -66 310 -53 60
-111 93 -179 101 l-55 6 2 65 c4 116 16 209 35 278 60 216 155 402 236 458 31
21 107 55 128 57 3 0 18 0 34 0 23 0 31 5 34 23 4 21 4 21 6 1 1 -18 9 -22 51
-27 112 -13 184 -69 258 -199 52 -92 133 -294 147 -370 3 -13 8 -39 11 -58 4
-19 8 -44 11 -55 2 -11 6 -55 10 -97 l6 -78 -40 0 c-109 0 -211 -66 -259 -168
-27 -56 -27 -61 -27 -252 -1 -176 1 -199 20 -236 11 -23 121 -162 244 -308
123 -147 235 -284 248 -304 24 -36 378 -620 412 -680 38 -66 51 -81 84 -96 63
-30 125 -16 175 40 14 16 90 108 170 204 79 96 147 177 150 180 3 3 23 28 45
55 21 28 49 61 62 75 12 14 59 70 104 125 103 127 151 185 164 199 51 54 69
90 68 137 -2 108 -129 189 -220 141 -11 -7 -69 -69 -128 -139 -59 -71 -114
-137 -123 -148 -9 -11 -82 -99 -162 -195 -79 -96 -150 -181 -157 -188 -7 -8
-25 -29 -40 -48 -21 -28 -29 -33 -38 -22 -12 13 -193 312 -229 378 -10 19 -34
59 -52 88 -19 29 -34 55 -34 58 0 5 -40 55 -142 179 -9 11 -82 100 -163 197
l-146 177 -5 126 -6 126 58 -6 c147 -14 186 -7 237 47 39 40 45 67 42 178 -5
160 -16 261 -40 400 -55 307 -224 614 -408 739 -92 62 -196 97 -291 96 l-50 0
-3 -40 c-6 -62 -9 -64 -24 -10 l-15 50 -44 2 c-25 0 -78 -7 -119 -18z"/>
<path d="M3876 5823 c-40 -21 -60 -42 -80 -80 -15 -29 -16 -236 -16 -2443 0
-2288 -1 -2410 -17 -2410 -166 -2 -202 -13 -245 -71 -27 -38 -30 -110 -4 -155
33 -58 70 -75 173 -77 l88 -2 5 -96 c4 -85 8 -100 32 -132 67 -87 172 -90 242
-7 32 39 38 59 40 157 l1 78 1150 0 1150 0 5 -96 c4 -85 8 -100 33 -132 65
-85 164 -92 233 -15 38 41 46 68 46 154 1 46 4 85 7 85 3 1 41 3 83 5 135 5
193 52 193 154 -1 42 -6 63 -24 86 -33 45 -64 56 -166 60 l-90 3 -1 2408 c-1
2679 5 2452 -70 2509 l-37 29 -1351 2 c-1218 2 -1354 1 -1380 -14z m2521
-1450 l3 -1153 -1153 0 -1153 0 1 1153 c1 633 3 1152 4 1153 0 0 517 0 1149 0
l1147 -1 2 -1152z m3 -1895 c0 -235 -3 -428 -7 -429 -33 -4 -2287 -3 -2292 1
-6 4 -8 831 -3 850 1 3 520 6 1152 6 l1150 0 0 -428z m-2 -1160 c2 -340 0
-428 -10 -429 -17 -1 -2258 -1 -2279 0 -14 1 -15 47 -14 429 1 235 3 427 4
428 0 0 517 0 1149 0 l1147 -1 3 -427z"/>
<path d="M4603 4903 c-2 -6 -5 -175 -6 -375 -2 -354 -3 -364 -24 -404 -36 -68
-70 -70 -195 -15 -88 39 -96 39 -103 1 -2 -12 -13 -55 -25 -97 -23 -86 -28
-78 60 -120 50 -25 66 -27 175 -27 103 -1 127 2 167 21 75 34 115 72 145 138
l28 60 3 413 3 412 -38 1 c-21 0 -71 1 -112 2 -48 1 -75 -2 -78 -10z"/>
<path d="M4952 4912 c-36 -3 -43 -6 -37 -20 3 -9 32 -106 64 -216 150 -515
221 -753 229 -776 9 -23 13 -24 101 -25 73 0 92 2 96 15 10 36 114 421 131
488 10 39 21 72 24 72 4 0 18 -51 33 -112 14 -62 46 -192 69 -288 l43 -175 97
0 c53 0 99 3 103 7 4 3 28 84 55 180 117 423 232 833 236 840 3 5 -7 8 -23 9
-30 1 -168 1 -194 0 -15 -1 -34 -70 -65 -231 -3 -14 -10 -45 -15 -70 -6 -25
-13 -56 -15 -69 -3 -12 -12 -53 -20 -90 -20 -83 -18 -73 -34 -158 -12 -69 -25
-95 -26 -55 -1 26 -112 531 -128 584 -2 7 -7 25 -10 39 -5 25 -6 25 -107 24
-81 -1 -103 -4 -104 -15 -3 -14 -6 -35 -20 -105 -3 -16 -8 -41 -11 -55 -3 -14
-8 -34 -10 -45 -2 -11 -19 -96 -39 -190 -20 -93 -38 -185 -41 -204 -3 -19 -9
-43 -14 -55 -7 -20 -10 -11 -36 109 -3 17 -75 349 -79 365 -2 8 -10 49 -19 90
-31 145 -20 132 -111 134 -44 0 -100 0 -123 -2z"/>
<path d="M991 3789 c-89 -19 -102 -43 -165 -299 -25 -102 -70 -286 -101 -410
-31 -124 -67 -270 -80 -325 -13 -55 -42 -174 -65 -265 -23 -91 -43 -172 -45
-180 -2 -8 -58 -234 -124 -502 -67 -268 -121 -497 -121 -508 0 -33 27 -77 67
-107 l36 -28 358 -3 358 -3 10 -32 c5 -18 12 -48 15 -67 3 -19 8 -46 11 -60 3
-14 8 -38 11 -55 3 -16 14 -77 26 -135 11 -58 21 -114 23 -125 1 -11 5 -33 9
-50 8 -38 19 -93 43 -225 2 -14 10 -56 18 -95 8 -38 17 -88 20 -110 22 -144
63 -197 159 -204 54 -4 109 23 134 67 12 21 22 30 22 21 0 -20 48 -65 83 -78
71 -27 164 2 186 57 10 26 24 84 36 150 3 18 12 64 20 102 8 38 17 82 20 97 3
16 7 39 10 53 7 29 23 114 30 150 3 14 7 36 10 50 3 14 12 59 20 100 8 41 17
84 19 95 3 11 16 78 30 149 14 71 29 133 33 137 5 5 169 10 365 11 l357 3 32
30 c63 60 72 116 38 248 -11 45 -23 89 -25 97 -2 8 -28 114 -59 235 -31 121
-58 227 -60 235 -5 22 -308 1221 -375 1484 -63 247 -76 272 -143 292 -41 13
-101 2 -135 -23 -41 -30 -70 -79 -67 -111 2 -15 87 -358 189 -762 102 -404
187 -746 190 -760 3 -14 28 -115 55 -225 28 -110 53 -209 55 -220 2 -11 13
-57 25 -102 12 -45 21 -88 21 -95 0 -12 -40 -14 -232 -14 -298 1 -352 -12
-452 -111 -53 -53 -74 -103 -102 -256 -32 -174 -28 -150 -63 -332 -17 -88 -33
-173 -36 -190 -11 -62 -16 -92 -30 -160 -8 -38 -17 -86 -20 -105 -4 -19 -8
-42 -10 -50 -2 -8 -4 -23 -4 -32 -2 -34 -19 -17 -26 24 -4 24 -25 133 -46 243
-22 110 -42 212 -44 226 -3 14 -18 97 -35 184 -17 87 -32 170 -35 184 -27 154
-45 198 -105 260 -102 105 -150 117 -447 116 -191 -1 -233 1 -233 12 0 8 63
269 141 581 78 312 143 575 145 585 8 36 15 62 104 417 51 201 94 374 96 385
2 11 12 52 22 91 21 78 19 134 -4 173 -33 55 -99 84 -163 70z"/>
</g>
</svg>
